<svg xmlns="http://www.w3.org/2000/svg" xmlns:xlink="http://www.w3.org/1999/xlink" viewBox="0 0 277.88 302.12"><defs><style>.cls-1{fill:none;}.cls-2{clip-path:url(#clip-path);}.cls-3{fill:#848688;}.cls-4{fill:#fff;}</style><clipPath id="clip-path" transform="translate(2.35)"><rect class="cls-1" width="249.18" height="302.12" rx="20.82"/></clipPath></defs><title>logo-min</title><g id="Camada_2" data-name="Camada 2"><g id="DESIGN"><g class="cls-2"><rect class="cls-3" x="2.35" width="249.18" height="302.12" rx="20.82"/><rect class="cls-4" y="276.88" width="277.88" height="8"/><rect class="cls-4" y="251.38" width="277.88" height="8"/><rect class="cls-4" y="225.88" width="277.88" height="8"/><rect class="cls-4" y="200.38" width="277.88" height="8"/><rect class="cls-4" y="174.88" width="277.88" height="8"/><rect class="cls-4" y="149.38" width="277.88" height="8"/><rect class="cls-4" y="123.88" width="277.88" height="8"/><rect class="cls-4" y="98.38" width="277.88" height="8"/><rect class="cls-4" y="72.88" width="277.88" height="8"/><rect class="cls-4" y="47.38" width="277.88" height="8"/><rect class="cls-4" y="21.88" width="277.88" height="8"/></g><path d="M112.37,125.51l2.41,1a28,28,0,0,1-1,2.71,25.28,25.28,0,0,1-1.28,2.62c0,.25,0,.62,0,1.11.09,2.6.13,4.44.13,5.52,0,.62,0,1.25,0,1.9s0,1.34-.07,2.09h-3.1q-.83-6.54-3.85-10.07A9.77,9.77,0,0,0,98,128.85,9,9,0,0,0,91,131.73a10.63,10.63,0,0,0-2.67,7.55q0,6.45,7.09,14.44t25,21.26a14.56,14.56,0,0,0,1-3.5,25.34,25.34,0,0,0,.34-4.2q0-5.75-3.06-8.87t-9.43-3.92v-2.37c2.13.1,4.38.31,6.77.65s5,.82,8,1.44q4.52-.93,8.13-1.44c2.42-.34,4.65-.55,6.68-.65v2.37a14.8,14.8,0,0,0-6.79,2.06,9.35,9.35,0,0,0-3.28,5c-.24.74-.59,1.9-1,3.47a68.85,68.85,0,0,1-4.47,12A98.89,98.89,0,0,0,138,186.57q6.3,3.15,10.72,3.15a11.24,11.24,0,0,0,2.8-.34,10.55,10.55,0,0,0,2.62-1.09l1.14,2.27a26,26,0,0,1-6.86,3.55,22.78,22.78,0,0,1-7.27,1.22,28.48,28.48,0,0,1-10.49-2.24,72.86,72.86,0,0,1-12.94-7.17,30.24,30.24,0,0,1-10.94,6.7,41.68,41.68,0,0,1-14.18,2.3Q81.46,194.92,75,190a15.71,15.71,0,0,1-6.49-13.24,17.14,17.14,0,0,1,4.78-12.15,22.42,22.42,0,0,1,12.86-6.53,22.35,22.35,0,0,1-4.92-6.77,17.79,17.79,0,0,1-1.69-7.56q0-8.16,5.31-13.12t14.2-5a34.13,34.13,0,0,1,6.52.67c2.31.45,3.62.67,3.92.67a3.65,3.65,0,0,0,1.71-.39A3.08,3.08,0,0,0,112.37,125.51Zm2.32,58.33a189,189,0,0,1-16.82-13.61q-9.3-8.32-12.49-8.32a6.47,6.47,0,0,0-5.13,2.45,9.4,9.4,0,0,0-2.07,6.26q0,7.47,6.65,12.85A24.9,24.9,0,0,0,101,188.84a22.7,22.7,0,0,0,7.77-1.29A15.82,15.82,0,0,0,114.69,183.84Z" transform="translate(2.35)"/><path d="M107.11,9.93l3.73,1.34q-.95,3.54-1.72,6.17t-1.57,4.77q.66,5.55,1,10.54c.2,3.33.29,6.57.29,9.73h-5.41q-1-13.83-9.22-21.45T71.91,13.41q-18.58,0-29.45,13.79T31.59,64.59q0,23.37,11.63,37.47t30.45,14.09q13.76,0,22-6.29t9.84-18H111q-.43,3.84-1.1,7.76c-.44,2.62-1,5.25-1.53,7.92.34,1.77.58,3.12.73,4s.24,1.76.29,2.55a67,67,0,0,1-17.12,5.95,98.47,98.47,0,0,1-20.79,2.11q-29.72,0-47.16-15.2T6.85,66.15Q6.85,40,24.34,24T70.81,8.08a111.89,111.89,0,0,1,20.71,2q10.62,2,11.27,2a5.8,5.8,0,0,0,2.64-.52A4.1,4.1,0,0,0,107.11,9.93Z" transform="translate(2.35)"/><path d="M150.08,174q5.89.33,12.41,1.2t14.32,2.4q7-1.44,13.67-2.32t12.9-1.28l.08,4.08q-9.42.65-12.79,6.48t-3.37,25.37q0,1.11.15,3.84c.1,1.81.15,3.2.15,4.16,0,.42,0,.94-.07,1.56s-.13,1.5-.23,2.68v38.8q0,15.68,3.21,19.4t13.25,3.72q19.45,0,26.27-4.12t8.73-15.16h5.13a81.92,81.92,0,0,1-1.92,9.32,85.33,85.33,0,0,1-2.91,8.92c.51,1.17.89,2.16,1.15,3a6.69,6.69,0,0,1,.38,2q0,3.19-3.67,4.32t-17.46,1.12H214q-12.18,0-21.83-.88a128.86,128.86,0,0,1-17.53-2.72q-7.12,1.6-13.17,2.48t-11.26,1.12v-4.08q9.19-.65,12.4-6.2t3.22-29.08V222.13c0-2.4,0-4.86-.08-7.36s-.07-3.82-.07-3.92q0-20.81-3.26-26.45T150.16,178Z" transform="translate(2.35)"/></g></g></svg>