<svg xmlns="http://www.w3.org/2000/svg" xmlns:xlink="http://www.w3.org/1999/xlink" viewBox="0 0 840.23 302.12"><defs><style>.cls-1{fill:none;}.cls-2{clip-path:url(#clip-path);}.cls-3{fill:#848688;}.cls-4{fill:#fff;}</style><clipPath id="clip-path" transform="translate(2.35)"><rect class="cls-1" width="249.18" height="302.12" rx="20.82"/></clipPath></defs><title>Ativo 2</title><g id="Camada_2" data-name="Camada 2"><g id="DESIGN"><g class="cls-2"><rect class="cls-3" x="2.35" width="249.18" height="302.12" rx="20.82"/><rect class="cls-4" y="276.88" width="277.88" height="8"/><rect class="cls-4" y="251.38" width="277.88" height="8"/><rect class="cls-4" y="225.88" width="277.88" height="8"/><rect class="cls-4" y="200.38" width="277.88" height="8"/><rect class="cls-4" y="174.88" width="277.88" height="8"/><rect class="cls-4" y="149.38" width="277.88" height="8"/><rect class="cls-4" y="123.88" width="277.88" height="8"/><rect class="cls-4" y="98.38" width="277.88" height="8"/><rect class="cls-4" y="72.88" width="277.88" height="8"/><rect class="cls-4" y="47.38" width="277.88" height="8"/><rect class="cls-4" y="21.88" width="277.88" height="8"/></g><path d="M112.37,125.51l2.41,1a28,28,0,0,1-1,2.71,25.28,25.28,0,0,1-1.28,2.62c0,.25,0,.62,0,1.11.09,2.6.13,4.44.13,5.52,0,.62,0,1.25,0,1.9s0,1.34-.07,2.09h-3.1q-.83-6.54-3.85-10.07A9.77,9.77,0,0,0,98,128.85,9,9,0,0,0,91,131.73a10.63,10.63,0,0,0-2.67,7.55q0,6.45,7.09,14.44t25,21.26a14.56,14.56,0,0,0,1-3.5,25.34,25.34,0,0,0,.34-4.2q0-5.75-3.06-8.87t-9.43-3.92v-2.37c2.13.1,4.38.31,6.77.65s5,.82,8,1.44q4.52-.93,8.13-1.44c2.42-.34,4.65-.55,6.68-.65v2.37a14.8,14.8,0,0,0-6.79,2.06,9.35,9.35,0,0,0-3.28,5c-.24.74-.59,1.9-1,3.47a68.85,68.85,0,0,1-4.47,12A98.89,98.89,0,0,0,138,186.57q6.3,3.15,10.72,3.15a11.24,11.24,0,0,0,2.8-.34,10.55,10.55,0,0,0,2.62-1.09l1.14,2.27a26,26,0,0,1-6.86,3.55,22.78,22.78,0,0,1-7.27,1.22,28.48,28.48,0,0,1-10.49-2.24,72.86,72.86,0,0,1-12.94-7.17,30.24,30.24,0,0,1-10.94,6.7,41.68,41.68,0,0,1-14.18,2.3Q81.46,194.92,75,190a15.71,15.71,0,0,1-6.49-13.24,17.14,17.14,0,0,1,4.78-12.15,22.42,22.42,0,0,1,12.86-6.53,22.35,22.35,0,0,1-4.92-6.77,17.79,17.79,0,0,1-1.69-7.56q0-8.16,5.31-13.12t14.2-5a34.13,34.13,0,0,1,6.52.67c2.31.45,3.62.67,3.92.67a3.65,3.65,0,0,0,1.71-.39A3.08,3.08,0,0,0,112.37,125.51Zm2.32,58.33a189,189,0,0,1-16.82-13.61q-9.3-8.32-12.49-8.32a6.47,6.47,0,0,0-5.13,2.45,9.4,9.4,0,0,0-2.07,6.26q0,7.47,6.65,12.85A24.9,24.9,0,0,0,101,188.84a22.7,22.7,0,0,0,7.77-1.29A15.82,15.82,0,0,0,114.69,183.84Z" transform="translate(2.35)"/><path d="M107.11,9.93l3.73,1.34q-.95,3.54-1.72,6.17t-1.57,4.77q.66,5.55,1,10.54c.2,3.33.29,6.57.29,9.73h-5.41q-1-13.83-9.22-21.45T71.91,13.41q-18.58,0-29.45,13.79T31.59,64.59q0,23.37,11.63,37.47t30.45,14.09q13.76,0,22-6.29t9.84-18H111q-.43,3.84-1.1,7.76c-.44,2.62-1,5.25-1.53,7.92.34,1.77.58,3.12.73,4s.24,1.76.29,2.55a67,67,0,0,1-17.12,5.95,98.47,98.47,0,0,1-20.79,2.11q-29.72,0-47.16-15.2T6.85,66.15Q6.85,40,24.34,24T70.81,8.08a111.89,111.89,0,0,1,20.71,2q10.62,2,11.27,2a5.8,5.8,0,0,0,2.64-.52A4.1,4.1,0,0,0,107.11,9.93Z" transform="translate(2.35)"/><path d="M150.08,174q5.89.33,12.41,1.2t14.32,2.4q7-1.44,13.67-2.32t12.9-1.28l.08,4.08q-9.42.65-12.79,6.48t-3.37,25.37q0,1.11.15,3.84c.1,1.81.15,3.2.15,4.16,0,.42,0,.94-.07,1.56s-.13,1.5-.23,2.68v38.8q0,15.68,3.21,19.4t13.25,3.72q19.45,0,26.27-4.12t8.73-15.16h5.13a81.92,81.92,0,0,1-1.92,9.32,85.33,85.33,0,0,1-2.91,8.92c.51,1.17.89,2.16,1.15,3a6.69,6.69,0,0,1,.38,2q0,3.19-3.67,4.32t-17.46,1.12H214q-12.18,0-21.83-.88a128.86,128.86,0,0,1-17.53-2.72q-7.12,1.6-13.17,2.48t-11.26,1.12v-4.08q9.19-.65,12.4-6.2t3.22-29.08V222.13c0-2.4,0-4.86-.08-7.36s-.07-3.82-.07-3.92q0-20.81-3.26-26.45T150.16,178Z" transform="translate(2.35)"/><path class="cls-4" d="M328,289.41h-6.69l-3.3-9.35H303.56l-3.17,9.35h-6.66l13.75-36.73h6.87Zm-11.6-14.32-5.1-14.65a17.85,17.85,0,0,1-.49-2.31h-.1a14.18,14.18,0,0,1-.51,2.31l-5.05,14.65Z" transform="translate(2.35)"/><path class="cls-4" d="M356.22,289.41h-5.94V285h-.1a10.26,10.26,0,0,1-16.59,1.55q-2.89-3.53-2.9-9.59,0-6.51,3.21-10.43a10.53,10.53,0,0,1,8.57-3.92,8.21,8.21,0,0,1,7.71,4.26h.1V250.58h5.94Zm-5.86-12V274a6.71,6.71,0,0,0-1.82-4.74,6.06,6.06,0,0,0-4.64-1.95,6.22,6.22,0,0,0-5.23,2.49,11,11,0,0,0-1.91,6.89,9.93,9.93,0,0,0,1.83,6.31,5.94,5.94,0,0,0,4.93,2.32,6.17,6.17,0,0,0,4.94-2.24A8.43,8.43,0,0,0,350.36,277.42Z" transform="translate(2.35)"/><path class="cls-4" d="M386.57,263.18l-10.14,26.23H370l-9.65-26.23h6.45l5.81,18.34a16.51,16.51,0,0,1,.82,3.53h.08a18.17,18.17,0,0,1,.72-3.43l6.09-18.44Z" transform="translate(2.35)"/><path class="cls-4" d="M401.81,290a13,13,0,0,1-9.69-3.67,13.27,13.27,0,0,1-3.63-9.75q0-6.62,3.78-10.32t10.18-3.72q6.15,0,9.58,3.62t3.43,10q0,6.27-3.7,10.05T401.81,290Zm.28-22.72a6.76,6.76,0,0,0-5.5,2.44,10.18,10.18,0,0,0-2,6.71,9.62,9.62,0,0,0,2.05,6.49,6.9,6.9,0,0,0,5.48,2.37,6.53,6.53,0,0,0,5.39-2.33,10.32,10.32,0,0,0,1.89-6.64,10.44,10.44,0,0,0-1.89-6.68A6.49,6.49,0,0,0,402.09,267.3Z" transform="translate(2.35)"/><path class="cls-4" d="M445.38,287.31q0,14.44-14.52,14.44a21.51,21.51,0,0,1-8.94-1.72v-5.42a16.62,16.62,0,0,0,8.17,2.45q9.35,0,9.35-9.19V285h-.11a10.3,10.3,0,0,1-16.58,1.52q-2.94-3.5-2.93-9.38,0-6.69,3.15-10.63a10.46,10.46,0,0,1,8.65-3.95,8.33,8.33,0,0,1,7.71,4.26h.11v-3.64h5.94Zm-5.89-9.92V274a6.68,6.68,0,0,0-1.83-4.73,6,6,0,0,0-4.58-2,6.31,6.31,0,0,0-5.29,2.5,11.27,11.27,0,0,0-1.9,7,9.68,9.68,0,0,0,1.83,6.18,5.87,5.87,0,0,0,4.85,2.32,6.33,6.33,0,0,0,5-2.21A8.37,8.37,0,0,0,439.49,277.39Z" transform="translate(2.35)"/><path class="cls-4" d="M473.24,289.41h-5.76v-4.1h-.1a8.69,8.69,0,0,1-8,4.71,8.39,8.39,0,0,1-6.05-2.1,7.34,7.34,0,0,1-2.19-5.56q0-7.42,8.55-8.65l7.79-1.11c0-3.74-1.78-5.6-5.33-5.6a12.64,12.64,0,0,0-8.45,3.22V265a18.41,18.41,0,0,1,9.58-2.46q9.93,0,9.93,9.79Zm-5.73-12.89-5.51.77a8.74,8.74,0,0,0-3.85,1.24,3.62,3.62,0,0,0-1.3,3.19,3.51,3.51,0,0,0,1.19,2.73,4.62,4.62,0,0,0,3.19,1.06,5.9,5.9,0,0,0,4.5-1.9,6.83,6.83,0,0,0,1.78-4.81Z" transform="translate(2.35)"/><path class="cls-4" d="M504.34,289.41h-5.95V285h-.1a10.25,10.25,0,0,1-16.58,1.55q-2.91-3.53-2.91-9.59,0-6.51,3.22-10.43a10.51,10.51,0,0,1,8.56-3.92,8.19,8.19,0,0,1,7.71,4.26h.1V250.58h5.95Zm-5.87-12V274a6.71,6.71,0,0,0-1.82-4.74A6.06,6.06,0,0,0,492,267.3a6.24,6.24,0,0,0-5.24,2.49,11.07,11.07,0,0,0-1.91,6.89A9.93,9.93,0,0,0,486.7,283a6,6,0,0,0,4.93,2.32,6.2,6.2,0,0,0,4.95-2.24A8.48,8.48,0,0,0,498.47,277.42Z" transform="translate(2.35)"/><path class="cls-4" d="M523.72,290a13,13,0,0,1-9.69-3.67,13.26,13.26,0,0,1-3.62-9.75q0-6.62,3.77-10.32t10.19-3.72c4.09,0,7.29,1.21,9.57,3.62s3.44,5.74,3.44,10a13.74,13.74,0,0,1-3.71,10.05Q530,290,523.72,290ZM524,267.3a6.76,6.76,0,0,0-5.51,2.44,10.18,10.18,0,0,0-2,6.71,9.57,9.57,0,0,0,2,6.49,6.87,6.87,0,0,0,5.48,2.37A6.54,6.54,0,0,0,529.4,283a10.38,10.38,0,0,0,1.88-6.64,10.5,10.5,0,0,0-1.88-6.68A6.51,6.51,0,0,0,524,267.3Z" transform="translate(2.35)"/><path class="cls-4" d="M541.78,288.59v-5.51a11.85,11.85,0,0,0,7.35,2.53c3.59,0,5.38-1.05,5.38-3.17a2.45,2.45,0,0,0-.46-1.52,4.51,4.51,0,0,0-1.24-1.12,10.3,10.3,0,0,0-1.85-.87l-2.37-.87a25.42,25.42,0,0,1-2.9-1.36,8.77,8.77,0,0,1-2.15-1.62,6.08,6.08,0,0,1-1.3-2.07,7.55,7.55,0,0,1-.43-2.69,6.29,6.29,0,0,1,.89-3.34,7.86,7.86,0,0,1,2.41-2.43,11.69,11.69,0,0,1,3.43-1.49,15.88,15.88,0,0,1,4-.5,17.92,17.92,0,0,1,6.51,1.11v5.19a11,11,0,0,0-6.35-1.89,8.48,8.48,0,0,0-2,.23,5.24,5.24,0,0,0-1.55.64,3.05,3.05,0,0,0-1,1,2.31,2.31,0,0,0-.36,1.26,2.7,2.7,0,0,0,.36,1.44,3.3,3.3,0,0,0,1.06,1,10,10,0,0,0,1.7.82c.65.24,1.41.51,2.26.8a32.53,32.53,0,0,1,3,1.41,10.3,10.3,0,0,1,2.29,1.63,6.26,6.26,0,0,1,1.46,2.1,7.12,7.12,0,0,1,.51,2.83,6.5,6.5,0,0,1-.92,3.48A7.81,7.81,0,0,1,557,288.1a11.56,11.56,0,0,1-3.55,1.45,18.74,18.74,0,0,1-4.24.47A18,18,0,0,1,541.78,288.59Z" transform="translate(2.35)"/><path class="cls-4" d="M611.29,289.41h-6.68l-3.31-9.35H586.86l-3.18,9.35H577l13.76-36.73h6.86Zm-11.6-14.32-5.1-14.65a18.25,18.25,0,0,1-.48-2.31H594a14.18,14.18,0,0,1-.51,2.31l-5,14.65Z" transform="translate(2.35)"/><path class="cls-4" d="M614,288.59v-5.51a11.85,11.85,0,0,0,7.35,2.53c3.59,0,5.38-1.05,5.38-3.17a2.45,2.45,0,0,0-.46-1.52,4.51,4.51,0,0,0-1.24-1.12,10.3,10.3,0,0,0-1.85-.87l-2.37-.87a25.42,25.42,0,0,1-2.9-1.36,9,9,0,0,1-2.15-1.62,6.08,6.08,0,0,1-1.3-2.07,7.55,7.55,0,0,1-.43-2.69A6.29,6.29,0,0,1,615,267a7.86,7.86,0,0,1,2.41-2.43,11.69,11.69,0,0,1,3.43-1.49,15.88,15.88,0,0,1,4-.5,17.92,17.92,0,0,1,6.51,1.11v5.19a11,11,0,0,0-6.35-1.89,8.54,8.54,0,0,0-2,.23,5.24,5.24,0,0,0-1.55.64,3.05,3.05,0,0,0-1,1,2.31,2.31,0,0,0-.36,1.26,2.7,2.7,0,0,0,.36,1.44,3.33,3.33,0,0,0,1.07,1,9.87,9.87,0,0,0,1.69.82c.65.24,1.41.51,2.26.8a32.53,32.53,0,0,1,3,1.41,10.3,10.3,0,0,1,2.29,1.63,6.26,6.26,0,0,1,1.46,2.1,7.12,7.12,0,0,1,.51,2.83,6.5,6.5,0,0,1-.92,3.48,7.61,7.61,0,0,1-2.46,2.46,11.56,11.56,0,0,1-3.55,1.45,18.72,18.72,0,0,1-4.23.47A18,18,0,0,1,614,288.59Z" transform="translate(2.35)"/><path class="cls-4" d="M636.65,288.59v-5.51a11.85,11.85,0,0,0,7.35,2.53c3.58,0,5.38-1.05,5.38-3.17a2.52,2.52,0,0,0-.46-1.52,4.56,4.56,0,0,0-1.25-1.12,10.19,10.19,0,0,0-1.84-.87l-2.37-.87a25.61,25.61,0,0,1-2.91-1.36,9,9,0,0,1-2.15-1.62,6.21,6.21,0,0,1-1.29-2.07,7.54,7.54,0,0,1-.44-2.69,6.21,6.21,0,0,1,.9-3.34,7.86,7.86,0,0,1,2.41-2.43,11.58,11.58,0,0,1,3.43-1.49,15.82,15.82,0,0,1,4-.5,17.9,17.9,0,0,1,6.5,1.11v5.19a11,11,0,0,0-6.35-1.89,8.4,8.4,0,0,0-2,.23,5.13,5.13,0,0,0-1.55.64,3.05,3.05,0,0,0-1,1,2.31,2.31,0,0,0-.36,1.26,2.7,2.7,0,0,0,.36,1.44,3.3,3.3,0,0,0,1.06,1,9.87,9.87,0,0,0,1.69.82c.66.24,1.41.51,2.27.8a32.28,32.28,0,0,1,3,1.41,10.07,10.07,0,0,1,2.29,1.63,6.12,6.12,0,0,1,1.46,2.1,6.94,6.94,0,0,1,.52,2.83,6.42,6.42,0,0,1-.93,3.48,7.67,7.67,0,0,1-2.45,2.46,11.66,11.66,0,0,1-3.55,1.45,18.74,18.74,0,0,1-4.24.47A17.94,17.94,0,0,1,636.65,288.59Z" transform="translate(2.35)"/><path class="cls-4" d="M672.53,290a13,13,0,0,1-9.69-3.67,13.27,13.27,0,0,1-3.63-9.75q0-6.62,3.78-10.32t10.18-3.72q6.15,0,9.58,3.62t3.43,10q0,6.27-3.7,10.05T672.53,290Zm.28-22.72a6.78,6.78,0,0,0-5.51,2.44,10.23,10.23,0,0,0-2,6.71,9.57,9.57,0,0,0,2.05,6.49,6.88,6.88,0,0,0,5.48,2.37A6.53,6.53,0,0,0,678.2,283a10.32,10.32,0,0,0,1.89-6.64,10.44,10.44,0,0,0-1.89-6.68A6.49,6.49,0,0,0,672.81,267.3Z" transform="translate(2.35)"/><path class="cls-4" d="M711,288.2a14.7,14.7,0,0,1-7.46,1.82,12.63,12.63,0,0,1-9.42-3.65,12.93,12.93,0,0,1-3.59-9.46,14.23,14.23,0,0,1,3.86-10.41q3.86-3.93,10.31-3.94a15,15,0,0,1,6.32,1.26v5.53a9.6,9.6,0,0,0-5.84-2.05,8.11,8.11,0,0,0-6.17,2.55,9.34,9.34,0,0,0-2.41,6.67,8.89,8.89,0,0,0,2.27,6.43,8.05,8.05,0,0,0,6.08,2.36,9.52,9.52,0,0,0,6-2.28Z" transform="translate(2.35)"/><path class="cls-4" d="M719.89,257.67a3.57,3.57,0,0,1-2.5-.94,3.15,3.15,0,0,1-1-2.41,3.21,3.21,0,0,1,1-2.44,3.55,3.55,0,0,1,2.5-1,3.68,3.68,0,0,1,2.56,1,3.19,3.19,0,0,1,1,2.44,3.14,3.14,0,0,1-1,2.37A3.64,3.64,0,0,1,719.89,257.67Zm2.94,31.74h-5.94V263.18h5.94Z" transform="translate(2.35)"/><path class="cls-4" d="M750.72,289.41H745v-4.1h-.1a8.69,8.69,0,0,1-8,4.71,8.4,8.4,0,0,1-6.06-2.1,7.34,7.34,0,0,1-2.19-5.56q0-7.42,8.56-8.65L745,272.6c0-3.74-1.78-5.6-5.33-5.6a12.64,12.64,0,0,0-8.45,3.22V265a18.38,18.38,0,0,1,9.57-2.46q9.94,0,9.94,9.79ZM745,276.52l-5.51.77a8.83,8.83,0,0,0-3.86,1.24,3.64,3.64,0,0,0-1.29,3.19,3.51,3.51,0,0,0,1.19,2.73,4.62,4.62,0,0,0,3.19,1.06,5.9,5.9,0,0,0,4.5-1.9A6.83,6.83,0,0,0,745,278.8Z" transform="translate(2.35)"/><path class="cls-4" d="M781.82,289.41h-6V285h-.1a10.25,10.25,0,0,1-16.58,1.55q-2.91-3.53-2.91-9.59,0-6.51,3.22-10.43a10.51,10.51,0,0,1,8.56-3.92,8.19,8.19,0,0,1,7.71,4.26h.1V250.58h6Zm-5.87-12V274a6.71,6.71,0,0,0-1.82-4.74,6.06,6.06,0,0,0-4.63-1.95,6.24,6.24,0,0,0-5.24,2.49,11.07,11.07,0,0,0-1.91,6.89,9.93,9.93,0,0,0,1.83,6.31,6,6,0,0,0,4.93,2.32,6.2,6.2,0,0,0,4.95-2.24A8.48,8.48,0,0,0,776,277.42Z" transform="translate(2.35)"/><path class="cls-4" d="M801.2,290a13,13,0,0,1-9.69-3.67,13.27,13.27,0,0,1-3.63-9.75q0-6.62,3.78-10.32t10.18-3.72q6.15,0,9.58,3.62t3.43,10q0,6.27-3.7,10.05T801.2,290Zm.29-22.72a6.76,6.76,0,0,0-5.51,2.44,10.18,10.18,0,0,0-2,6.71,9.62,9.62,0,0,0,2,6.49,6.9,6.9,0,0,0,5.49,2.37,6.56,6.56,0,0,0,5.39-2.33,10.38,10.38,0,0,0,1.88-6.64,10.5,10.5,0,0,0-1.88-6.68A6.52,6.52,0,0,0,801.49,267.3Z" transform="translate(2.35)"/><path class="cls-4" d="M819.26,288.59v-5.51a11.85,11.85,0,0,0,7.35,2.53c3.59,0,5.38-1.05,5.38-3.17a2.45,2.45,0,0,0-.46-1.52,4.51,4.51,0,0,0-1.24-1.12,10.64,10.64,0,0,0-1.85-.87l-2.37-.87a25.42,25.42,0,0,1-2.9-1.36,9,9,0,0,1-2.16-1.62,6.21,6.21,0,0,1-1.29-2.07,7.55,7.55,0,0,1-.43-2.69,6.2,6.2,0,0,1,.89-3.34,7.86,7.86,0,0,1,2.41-2.43,11.69,11.69,0,0,1,3.43-1.49,15.88,15.88,0,0,1,4-.5,18,18,0,0,1,6.51,1.11v5.19a11,11,0,0,0-6.36-1.89,8.4,8.4,0,0,0-2,.23,5.24,5.24,0,0,0-1.55.64,3.05,3.05,0,0,0-1,1,2.31,2.31,0,0,0-.36,1.26,2.7,2.7,0,0,0,.36,1.44,3.3,3.3,0,0,0,1.06,1,10.25,10.25,0,0,0,1.69.82l2.27.8a32.53,32.53,0,0,1,3,1.41,10.3,10.3,0,0,1,2.29,1.63,6.26,6.26,0,0,1,1.46,2.1,7.12,7.12,0,0,1,.51,2.83,6.5,6.5,0,0,1-.92,3.48,7.81,7.81,0,0,1-2.46,2.46,11.66,11.66,0,0,1-3.55,1.45,18.74,18.74,0,0,1-4.24.47A17.94,17.94,0,0,1,819.26,288.59Z" transform="translate(2.35)"/><path class="cls-4" d="M377.75,2l3.08,1.1Q380,6,379.41,8.21c-.42,1.45-.85,2.77-1.3,4q.56,4.6.79,8.74t.24,8.08h-4.46q-.84-11.49-7.59-17.81T348.76,4.86q-15.3,0-24.26,11.45t-8.95,31q0,19.41,9.59,31.1t25.07,11.69q11.32,0,18.11-5.22T376.43,70H381q-.36,3.18-.91,6.44T378.78,83c.28,1.47.48,2.59.6,3.35s.2,1.46.24,2.11a55,55,0,0,1-14.1,5,81.17,81.17,0,0,1-17.12,1.75q-24.47,0-38.84-12.62T295.18,48.63q0-21.74,14.41-35T347.86.44A91.13,91.13,0,0,1,364.92,2.1c5.82,1.1,8.92,1.66,9.28,1.66a4.9,4.9,0,0,0,2.17-.43A3.44,3.44,0,0,0,377.75,2Z" transform="translate(2.35)"/><path class="cls-4" d="M443.45,59.07V70.61q0,9.27,1.27,12.43a4.46,4.46,0,0,0,4.4,3.16,4.92,4.92,0,0,0,1.59-.3,21.67,21.67,0,0,0,2.5-1.17l1.45,2.52a26.93,26.93,0,0,1-7,5.25,15.71,15.71,0,0,1-7,1.87,10.73,10.73,0,0,1-7.33-2.4,12.13,12.13,0,0,1-3.64-7.12,22.61,22.61,0,0,1-8.89,7.31,27.11,27.11,0,0,1-11.85,2.7q-7.77,0-12.11-3.72T392.46,80.8q0-12,22.72-18l3.32-.92q6.51-1.84,8.31-4t1.81-8.5q0-6.57-2.29-9.82a7.89,7.89,0,0,0-6.93-3.26A8.94,8.94,0,0,0,412.56,39,10.3,10.3,0,0,0,410,46.36a13.05,13.05,0,0,0,.33,3A9.25,9.25,0,0,0,411.39,52a18.57,18.57,0,0,1-3.62,1.78,10,10,0,0,1-3.32.61,6.52,6.52,0,0,1-5-2,7.82,7.82,0,0,1-1.9-5.5q0-6.19,6.57-10.37t16.64-4.18q12,0,17.39,6.17T443.45,59.07ZM428.5,62.94q-2.53,1-7.11,2.45-14,4.6-14,12.65a10,10,0,0,0,2.35,7,8.39,8.39,0,0,0,6.51,2.54q5.78,0,9-3.62t3.22-10.25Z" transform="translate(2.35)"/><path class="cls-4" d="M485.82,94.37q-3.19-7.37-8.56-20Q461.6,36.91,453.21,36.91V34.08a64.15,64.15,0,0,1,7.21.59c2.63.34,5.87.89,9.73,1.62q4.83-.91,9-1.5a73.49,73.49,0,0,1,7.66-.71v2.83a12.59,12.59,0,0,0-4.86,1.75,3.47,3.47,0,0,0-1.29,2.91q0,2.58,4.16,13.51T495.71,80.8q6.19-14.55,9.4-23.88t3.19-13.08A6.54,6.54,0,0,0,506.68,39c-1.09-1.06-2.94-1.76-5.55-2.08V34.08a58.2,58.2,0,0,1,6.45.65q3.44.52,7.23,1.44c2.57-.61,4.86-1.09,6.84-1.44a44.19,44.19,0,0,1,5.4-.65v2.83h-.12q-8.2,0-28.39,49.91l-3.07,7.55-4.34-.74Z" transform="translate(2.35)"/><path class="cls-4" d="M581.84,59.07V70.61q0,9.27,1.26,12.43a4.47,4.47,0,0,0,4.4,3.16,5,5,0,0,0,1.6-.3,22.49,22.49,0,0,0,2.5-1.17l1.45,2.52a26.81,26.81,0,0,1-7,5.25,15.71,15.71,0,0,1-7,1.87,10.72,10.72,0,0,1-7.32-2.4A12.14,12.14,0,0,1,568,84.85a22.54,22.54,0,0,1-8.89,7.31,27.07,27.07,0,0,1-11.84,2.7q-7.77,0-12.12-3.72T530.84,80.8q0-12,22.73-18l3.31-.92q6.51-1.84,8.32-4t1.81-8.5q0-6.57-2.29-9.82a7.92,7.92,0,0,0-6.93-3.26A8.91,8.91,0,0,0,551,39a10.31,10.31,0,0,0-2.57,7.34,12.52,12.52,0,0,0,.34,3,9.52,9.52,0,0,0,1,2.61,18.3,18.3,0,0,1-3.62,1.78,10,10,0,0,1-3.31.61,6.51,6.51,0,0,1-5-2,7.78,7.78,0,0,1-1.9-5.5q0-6.19,6.57-10.37t16.63-4.18q12.06,0,17.39,6.17T581.84,59.07Zm-15,3.87q-2.53,1-7.11,2.45-14,4.6-14,12.65a10,10,0,0,0,2.35,7,8.42,8.42,0,0,0,6.51,2.54q5.79,0,9-3.62t3.23-10.25Z" transform="translate(2.35)"/><path class="cls-4" d="M606.67,68.58V61.09q0-14.18-1.66-17.09t-6.6-2.92h-1.27V38.2a76.12,76.12,0,0,1,7.9-1.32c2.65-.31,5.36-.5,8.14-.59A31.49,31.49,0,0,1,615.8,34a15.9,15.9,0,0,1,2.62-1.69l1.93,1.17c-.28,2.82-.51,5.69-.69,8.59s-.32,5.88-.4,8.9l1.63.31q1.75-8.34,6.09-13.17t9.94-4.82a11.09,11.09,0,0,1,7,2.06,7,7,0,0,1,1,9.92,10.61,10.61,0,0,1-4.61,3A11,11,0,0,0,637,45.32a8.29,8.29,0,0,0-4-1q-5.67,0-8.5,5.5t-2.83,16.42V71q0,12.88,2.41,16t10.06,3.62l-.06,3a83.79,83.79,0,0,1-9.1-.67q-4.95-.61-10.73-1.72c-3.7.69-6.91,1.24-9.64,1.62s-5.18.65-7.35.77l-.07-3q5.67-.36,7.6-3.56t1.93-17.31Z" transform="translate(2.35)"/><path class="cls-4" d="M703.34,59.07V70.61q0,9.27,1.27,12.43A4.47,4.47,0,0,0,709,86.2a5,5,0,0,0,1.6-.3,22.49,22.49,0,0,0,2.5-1.17l1.45,2.52a27,27,0,0,1-7,5.25,15.71,15.71,0,0,1-7,1.87,10.72,10.72,0,0,1-7.32-2.4,12.14,12.14,0,0,1-3.65-7.12,22.54,22.54,0,0,1-8.89,7.31,27.07,27.07,0,0,1-11.84,2.7q-7.77,0-12.12-3.72T652.35,80.8q0-12,22.73-18l3.31-.92q6.51-1.84,8.32-4t1.81-8.5q0-6.57-2.29-9.82a7.92,7.92,0,0,0-6.93-3.26A8.91,8.91,0,0,0,672.46,39a10.31,10.31,0,0,0-2.57,7.34,12.52,12.52,0,0,0,.34,3,9.52,9.52,0,0,0,1,2.61,18.3,18.3,0,0,1-3.62,1.78,10,10,0,0,1-3.31.61,6.51,6.51,0,0,1-5-2,7.78,7.78,0,0,1-1.9-5.5q0-6.19,6.57-10.37t16.63-4.18q12.06,0,17.39,6.17T703.34,59.07ZM688.4,62.94q-2.53,1-7.11,2.45-14,4.6-14,12.65a10,10,0,0,0,2.35,7,8.42,8.42,0,0,0,6.51,2.54q5.79,0,9-3.62t3.23-10.25Z" transform="translate(2.35)"/><path class="cls-4" d="M728.18,68.58V61.09q0-14.18-1.66-17.09t-6.6-2.92h-1.27V38.2a76.12,76.12,0,0,1,7.9-1.32c2.65-.31,5.36-.5,8.14-.59a31.49,31.49,0,0,1,2.62-2.3,15.9,15.9,0,0,1,2.62-1.69l1.93,1.17c-.28,2.82-.51,5.69-.69,8.59s-.32,5.88-.4,8.9l1.63.31q1.76-8.34,6.09-13.17t9.94-4.82a11.09,11.09,0,0,1,7,2.06,6.65,6.65,0,0,1,2.62,5.5,6.71,6.71,0,0,1-1.6,4.42,10.61,10.61,0,0,1-4.61,3,11,11,0,0,0-3.41-2.94,8.29,8.29,0,0,0-4-1q-5.67,0-8.5,5.5t-2.83,16.42V71q0,12.88,2.41,16t10.06,3.62l-.06,3a83.79,83.79,0,0,1-9.1-.67q-5-.61-10.73-1.72c-3.7.69-6.91,1.24-9.64,1.62s-5.19.65-7.36.77l-.06-3q5.67-.36,7.6-3.56t1.93-17.31Z" transform="translate(2.35)"/><path class="cls-4" d="M836.49,63.43q0,13.82-9.26,22.71T803.4,95q-14.6,0-23.87-8.9t-9.28-22.71q0-13.76,9.28-22.66t23.87-8.9q14.58,0,23.83,8.9T836.49,63.43ZM803.4,36.05q-7.54,0-11.79,7t-4.25,19.64q0,13.94,4.07,21.12t12,7.18q7.77,0,11.93-7.12t4.16-20.44q0-13.2-4.16-20.29T803.4,36.05Z" transform="translate(2.35)"/><path class="cls-4" d="M355,133.57l3.2,1.3a37.82,37.82,0,0,1-1.27,3.62,32.84,32.84,0,0,1-1.69,3.49c0,.33,0,.83.06,1.49.12,3.46.18,5.92.18,7.36,0,.83,0,1.67,0,2.54s0,1.79-.09,2.78h-4.1q-1.09-8.72-5.1-13.42A12.86,12.86,0,0,0,335.88,138a11.91,11.91,0,0,0-9.2,3.84A14.33,14.33,0,0,0,323.15,152q0,8.6,9.38,19.27t33,28.37a19.75,19.75,0,0,0,1.36-4.67,33.18,33.18,0,0,0,.45-5.6q0-7.66-4-11.85t-12.49-5.23v-3.15q4.22.18,9,.86t10.59,1.92q6-1.23,10.77-1.92c3.2-.45,6.14-.74,8.84-.86v3.15c-4.07.46-7.06,1.37-9,2.76a12.5,12.5,0,0,0-4.35,6.65q-.48,1.48-1.39,4.64a92.77,92.77,0,0,1-5.91,16,129.43,129.43,0,0,0,19.55,12.8q8.32,4.22,14.18,4.21a14.56,14.56,0,0,0,3.71-.46,13.57,13.57,0,0,0,3.47-1.46l1.51,3a34.53,34.53,0,0,1-9.08,4.73,29.69,29.69,0,0,1-9.62,1.64,37.13,37.13,0,0,1-13.88-3,96.31,96.31,0,0,1-17.14-9.56,39.92,39.92,0,0,1-14.48,8.94,54.79,54.79,0,0,1-18.77,3.06q-14.77,0-23.38-6.53a21,21,0,0,1-8.6-17.66,23,23,0,0,1,6.34-16.22q6.33-6.79,17-8.72a29.71,29.71,0,0,1-6.51-9A24,24,0,0,1,311.44,158q0-10.89,7-17.51t18.8-6.63a45,45,0,0,1,8.63.9q4.59.9,5.19.9a4.77,4.77,0,0,0,2.26-.53A4.07,4.07,0,0,0,355,133.57ZM358,211.41a247.16,247.16,0,0,1-22.27-18.16q-12.3-11.1-16.53-11.11a8.53,8.53,0,0,0-6.79,3.28,12.6,12.6,0,0,0-2.75,8.36q0,10,8.81,17.14t21.36,7.18a29.64,29.64,0,0,0,10.29-1.74A20.63,20.63,0,0,0,358,211.41Z" transform="translate(2.35)"/><path class="cls-4" d="M448.3,132.7q4.63.26,9.77.93t11.28,1.85q5.56-1.11,10.78-1.79t10.16-1l.06,3.16q-7.41.49-10.07,5t-2.66,19.61c0,.58,0,1.57.12,3s.12,2.47.12,3.21c0,.33,0,.74-.06,1.21s-.1,1.17-.18,2.07v30q0,12.12,2.54,15t10.43,2.88q15.33,0,20.7-3.19t6.88-11.72h4a63.95,63.95,0,0,1-3.8,14.1c.4.91.7,1.68.91,2.29a5.27,5.27,0,0,1,.3,1.55c0,1.65-1,2.77-2.9,3.34s-6.51.87-13.76.87h-4.34q-9.6,0-17.2-.68a102.81,102.81,0,0,1-13.82-2.11q-5.61,1.24-10.37,1.92t-8.87.87v-3.16q7.23-.5,9.77-4.79t2.54-22.5V170c0-1.85,0-3.75-.06-5.69s-.07-2.95-.07-3q0-16.09-2.56-20.45t-9.62-4.92Z" transform="translate(2.35)"/><path class="cls-4" d="M585.09,188.21H550.21a4.22,4.22,0,0,0-3.35,1.11c-.62.74-.93,2.11-.93,4.09q0,10.76,6.45,18.13a20.75,20.75,0,0,0,16.29,7.36,24,24,0,0,0,9-1.7,23.16,23.16,0,0,0,7.57-4.92l1.63,2.91a27.61,27.61,0,0,1-11.23,8.32,39.51,39.51,0,0,1-15.62,3q-13.71,0-21.73-8.13t-8-21.94q0-14.12,8.63-23.7a27.43,27.43,0,0,1,21.24-9.59q10.8,0,18,6.31a19.68,19.68,0,0,1,7.21,15.34q0,1.24-.06,2C585.23,187.28,585.17,187.75,585.09,188.21ZM545.93,184h21.24a5.18,5.18,0,0,0,2.74-.49,2.42,2.42,0,0,0,.7-2,14.51,14.51,0,0,0-3.69-9.81,11.23,11.23,0,0,0-8.74-4.23,10.77,10.77,0,0,0-8.78,4.33,16.65,16.65,0,0,0-3.47,10.77Z" transform="translate(2.35)"/><path class="cls-4" d="M646.76,190.25v11.63q0,9.35,1.26,12.53a4.48,4.48,0,0,0,4.41,3.19,4.79,4.79,0,0,0,1.6-.31,20.77,20.77,0,0,0,2.5-1.17l1.45,2.53a26.71,26.71,0,0,1-7,5.29,15.53,15.53,0,0,1-7,1.89,10.69,10.69,0,0,1-7.33-2.41,12.23,12.23,0,0,1-3.65-7.18,22.59,22.59,0,0,1-8.9,7.36,26.91,26.91,0,0,1-11.86,2.73q-7.78,0-12.13-3.75t-4.34-10.42q0-12.07,22.75-18.2l3.31-.93q6.53-1.84,8.33-4t1.81-8.57q0-6.61-2.29-9.9a7.92,7.92,0,0,0-6.94-3.28,8.9,8.9,0,0,0-6.85,2.76,10.4,10.4,0,0,0-2.56,7.39,13.23,13.23,0,0,0,.33,3.06,9.52,9.52,0,0,0,1,2.63,17.65,17.65,0,0,1-3.62,1.8,10,10,0,0,1-3.32.62,6.46,6.46,0,0,1-5-2.08,7.84,7.84,0,0,1-1.9-5.53q0-6.25,6.57-10.46T624,163.27q12.06,0,17.41,6.22T646.76,190.25Zm-15,3.9q-2.53,1-7.12,2.47-14,4.65-14,12.75a10.1,10.1,0,0,0,2.36,7.09,8.38,8.38,0,0,0,6.51,2.56q5.79,0,9-3.65T631.79,205Z" transform="translate(2.35)"/><path class="cls-4" d="M671.13,199.84V158.2c0-1.74,0-3.63-.12-5.7v-.93q0-8.22-1.69-10.83c-1.12-1.73-3.28-2.59-6.45-2.59H661.6v-3c2.45-.49,5.1-.9,7.93-1.23s5.89-.6,9.15-.81c1.16-.91,2.25-1.7,3.25-2.38s2-1.31,3-1.89l2.11,1.24q-.48,4.52-.72,9.59T686.1,151V201q0,14.41,2,17.6c1.37,2.13,4,3.27,8,3.44v3c-2.69-.12-5.51-.37-8.44-.74s-6-.89-9.18-1.55q-4.75,1-9.14,1.55c-2.91.37-5.72.62-8.41.74v-3c4.06-.17,6.76-1.33,8.11-3.5S671.13,210.16,671.13,199.84Z" transform="translate(2.35)"/></g></g></svg>